<?xml version="1.0" encoding="iso-8859-1"?>
<!-- Generator: Adobe Illustrator 19.0.0, SVG Export Plug-In . SVG Version: 6.00 Build 0)  -->
<svg xmlns="http://www.w3.org/2000/svg" xmlns:xlink="http://www.w3.org/1999/xlink" version="1.1" id="Layer_1" x="0px" y="0px" viewBox="0 0 512 512" style="enable-background:new 0 0 512 512;" xml:space="preserve" width="512" height="512">
<g>
	<path style="fill:#FF9100;" d="M325,408.199l-69,30l-69-30c9-33.6,11.4-70,7.8-104.801l-17.401-11.1l12.9-18.3l-6-29.399l54.6-5.4   l-0.601-0.3L256,240.099l71.7,4.501l-6,29.399l19.799,15.601l-24.3,13.799C313.599,338.2,316,374.599,325,408.199z"/>
	<path style="fill:#FF641A;" d="M325,408.199l-69,30v-198.1l71.7,4.501l-6,29.399l19.799,15.601l-24.3,13.799   C313.599,338.2,316,374.599,325,408.199z"/>
	<path style="fill:#FDBF00;" d="M442,111.7C437.5,102.7,431.8,94.3,424.6,87.4c-15-15-35.099-23.101-55.499-24.901   C344.2,24.399,301.601,0,256,0s-88.2,24.399-113.101,62.5C122.5,64.3,102.4,72.4,87.4,87.4c-11.1,11.1-19.2,24.899-23.401,39.899   C43.9,137.5,31,157.899,31,181c0,32.999,27.001,60,60,60c9.3,0,18.6-2.1,26.7-6.301c16.199,6.301,34.2,8.101,51.299,4.501   C193.299,259.9,223.9,271,256,271s62.701-11.1,87.001-31.8c22.798,4.499,46.8,0.3,65.999-12.001c5.7,1.8,11.7,2.401,17.701,2.401   c32.999,0,60-26.7,60-60C486.7,142,468.1,118.599,442,111.7z"/>
	<path style="fill:#FF9100;" d="M486.7,169.6c0,33.3-27.001,60-60,60c-6,0-12.001-0.601-17.701-2.401   c-19.199,12.301-43.2,16.5-65.999,12.001C318.701,259.9,288.1,271,256,271V0c45.601,0,88.2,24.399,113.101,62.5   C389.5,64.3,409.6,72.4,424.6,87.4c7.2,6.899,12.9,15.3,17.401,24.3C468.1,118.599,486.7,142,486.7,169.6z"/>
	<g>
		<rect x="241" y="301" style="fill:#FF641A;" width="30" height="91"/>
	</g>
	<rect x="256" y="301" style="fill:#F03800;" width="15" height="91"/>
	<g>
		<g>
			<rect x="451" y="392" style="fill:#FDBF00;" width="30" height="30"/>
		</g>
	</g>
	<g>
		<g>
			<rect x="31" y="422" style="fill:#FFDA2D;" width="30" height="30"/>
		</g>
	</g>
	<path style="fill:#FDBF00;" d="M451,492.499V497H61v-4.501c0-38.101,30.3-69,68.101-70.499c10.499-18.3,30.3-30,51.899-30   c14.099,0,27.001,5.099,37.5,13.799C228.701,397.4,241.601,392,256,392s27.299,5.4,37.5,13.799   C303.999,397.099,316.901,392,331,392c21.599,0,41.4,11.7,51.899,30C420.7,423.5,451,454.399,451,492.499z"/>
	<path style="fill:#FF9100;" d="M451,492.499V497H256V392c14.399,0,27.299,5.4,37.5,13.799C303.999,397.099,316.901,392,331,392   c21.599,0,41.4,11.7,51.899,30C420.7,423.5,451,454.399,451,492.499z"/>
	<rect y="482" style="fill:#FFDA2D;" width="512" height="30"/>
	<rect x="256" y="482" style="fill:#FDBF00;" width="256" height="30"/>
	<g>
		<g>
			<g>
				<path style="fill:#FDBF00;" d="M421,316c0,27.599-55.8,38.399-104.399,42.299C291.7,360.7,268.9,361,256,361      s-35.7-0.3-60.601-2.701C146.8,354.399,91,343.599,91,316c0-8.401,0-33.001,99.3-42.001l0.901,3.9      c1.8,8.699,2.999,17.1,3.898,25.8c-35.4,3.001-56.1,8.401-66.599,12.301c12.001,4.2,35.099,9.6,68.101,12.299      C213.701,330.099,233.5,331,256,331s42.299-0.901,59.399-2.701c33.001-2.699,56.1-8.099,68.101-12.299      c-10.499-3.9-31.199-9.3-66.599-12.301c0.899-8.699,2.098-17.1,3.898-25.8l0.901-3.9C421,282.999,421,307.599,421,316z"/>
			</g>
		</g>
	</g>
	<path style="fill:#FF9100;" d="M421,316c0,27.599-55.8,38.399-104.399,42.299C291.7,360.7,268.9,361,256,361v-30   c22.5,0,42.299-0.901,59.399-2.701c33.001-2.699,56.1-8.099,68.101-12.299c-10.499-3.9-31.199-9.3-66.599-12.301   c0.899-8.699,2.098-17.1,3.898-25.8l0.901-3.9C421,282.999,421,307.599,421,316z"/>
</g>















</svg>
